<?xml version="1.0" standalone="no"?>
<!DOCTYPE svg PUBLIC "-//W3C//DTD SVG 1.1//EN" "http://www.w3.org/Graphics/SVG/1.1/DTD/svg11.dtd" >
<svg xmlns="http://www.w3.org/2000/svg">
<metadata></metadata>
<defs>
<font id="palestinalight" horiz-adv-x="1093" >
<font-face units-per-em="2048" ascent="1638" descent="-410" />
<missing-glyph horiz-adv-x="454" />
<glyph unicode="&#xfb01;" horiz-adv-x="1064" d="M20 973v129h197v123q0 151 83.5 225t227.5 74h101l14 -129h-84q-101 0 -145.5 -45t-44.5 -140v-108h532v-1102h-151v973h-381v-973h-152v973h-197zM750 1319v160h151v-160h-151z" />
<glyph unicode="&#xfb02;" horiz-adv-x="1064" d="M20 973v129h197v112q0 152 86 231t229 79q55 0 133.5 -11t90.5 -12l145 23v-1524h-151v1372q-15 3 -48.5 8.5t-48 8t-41 4.5t-53.5 2q-99 0 -144.5 -48t-45.5 -143v-102h219v-129h-219v-973h-152v973h-197z" />
<glyph horiz-adv-x="2048" />
<glyph horiz-adv-x="2048" />
<glyph unicode="&#xd;" horiz-adv-x="2048" />
<glyph unicode=" "  horiz-adv-x="454" />
<glyph unicode="&#x09;" horiz-adv-x="454" />
<glyph unicode="&#xa0;" horiz-adv-x="454" />
<glyph unicode="!" horiz-adv-x="495" d="M164 1098v336h168v-336l-37 -733h-94zM168 0v193h160v-193h-160z" />
<glyph unicode="&#x22;" horiz-adv-x="653" d="M119 918v561h141v-561h-141zM393 918v561h142v-561h-142z" />
<glyph unicode="#" d="M96 442v131h172l33 297h-201v131h215l54 457h139l-53 -457h245l54 457h139l-53 -457h155v-131h-170l-32 -297h202v-131h-223l-53 -462h-135l53 462h-248l-55 -462h-139l57 462h-156zM403 573h250l37 297h-250z" />
<glyph unicode="$" d="M127 375l154 20q10 -113 40 -173.5t101 -86.5l63 529q-46 16 -72 25.5t-64.5 26t-60.5 31.5t-49.5 36.5t-42.5 46t-30 56.5t-21 71.5t-6 86.5q0 202 101.5 296t306.5 94h26l21 178h125l-25 -191q127 -30 186.5 -113t71.5 -235l-164 -20q-11 102 -32.5 150t-77.5 79 l-60 -500q45 -16 71 -26.5t63.5 -27.5t60 -32.5t50 -38t43 -48t30 -58t21 -73.5t6.5 -89q0 -409 -418 -409q7 0 0 1q-5 0 -17 1l-26 -211h-125l29 221q-135 29 -201 122.5t-78 260.5zM295 1059q0 -101 49.5 -149.5t159.5 -88.5l55 482l-9 2h-3q-128 0 -190 -59.5t-62 -186.5 zM543 115h4q127 0 191.5 67t64.5 193q0 78 -21 124.5t-60.5 72t-119.5 53.5z" />
<glyph unicode="%" horiz-adv-x="1417" d="M125 1049v215q0 113 59 165t178 52q121 0 179.5 -51.5t58.5 -165.5v-215q0 -114 -59 -166t-179 -52q-119 0 -178 52t-59 166zM240 1030q0 -48 34.5 -70t87.5 -22q125 0 125 92v254q0 46 -35 67t-90 21q-53 0 -87.5 -21t-34.5 -67v-254zM264 0l813 1524h103l-813 -1524 h-103zM821 217v215q0 113 59.5 165t178.5 52q120 0 178.5 -51.5t58.5 -165.5v-215q0 -114 -58.5 -165.5t-178.5 -51.5q-119 0 -178.5 52t-59.5 165zM936 199q0 -48 35 -70.5t88 -22.5q55 0 90 22t35 71v254q0 46 -35 67t-90 21q-53 0 -88 -21t-35 -67v-254z" />
<glyph unicode="&#x26;" horiz-adv-x="1187" d="M133 399q0 248 189 330q-106 44 -147.5 119.5t-41.5 177.5q0 211 116 309.5t339 98.5q211 0 326.5 -97t115.5 -295l-162 -10q0 136 -71.5 204.5t-208.5 68.5q-144 0 -219.5 -66.5t-75.5 -198.5q0 -130 73 -184.5t222 -54.5h715v-1v-1v-1v-1v-1v-1v-1v-1v-1v-1v-1v-1v-1 v-1v-1v-1v-1v-1v-1v-1v-1v-1v-1v-1v-1v-1v-1v-2v-1v-1v-1v-1v-1v-2v-1v-1v-1v-2v-1v-1v-1v-2v-1v-1v-2v-1v-2v-1v-1v-2v-1v-2v-1v-2v-1v-2v-1v-2v-1v-2v-1v-2v-1v-2v-1v-2v-2v-1v-2v-2v-1v-2v-2v-1v-2v-2v-1v-2v-2v-1v-2v-2v-2v-1v-2v-2v-2v-2v-1v-2v-9l-271 -2v-267 q0 -217 -110.5 -319t-333.5 -102q-229 0 -342 98.5t-113 320.5zM293 373q0 -132 75.5 -198t219.5 -66q141 0 212.5 70.5t71.5 205.5v283h-284q-147 0 -221 -58t-74 -188v-49z" />
<glyph unicode="'" horiz-adv-x="552" d="M205 918v561h143v-561h-143z" />
<glyph unicode="(" horiz-adv-x="512" d="M111 645q0 216 68 448.5t177 407.5l115 -14q-209 -408 -209 -842t209 -842l-115 -14q-109 175 -177 407.5t-68 448.5z" />
<glyph unicode=")" horiz-adv-x="512" d="M41 -197q209 408 209 842t-209 842l115 14q109 -175 177 -407.5t68 -448.5t-68 -448.5t-177 -407.5z" />
<glyph unicode="*" horiz-adv-x="815" d="M51 1151l43 133l279 -131l-23 328h115l-23 -328l279 131l43 -133l-313 -51l223 -250l-107 -76l-159 295l-162 -295l-105 76l221 250z" />
<glyph unicode="+" d="M98 489v136h373v450h152v-450h370v-136h-370v-450h-152v450h-373z" />
<glyph unicode="," horiz-adv-x="409" d="M123 -242q44 54 64 110.5t20 131.5h-82v193h160v-193q0 -148 -86 -252z" />
<glyph unicode="-" horiz-adv-x="681" d="M92 492v131h502v-131h-502z" />
<glyph unicode="." horiz-adv-x="409" d="M125 0v193h160v-193h-160z" />
<glyph unicode="/" horiz-adv-x="489" d="M-49 -197l436 1676h152l-439 -1676h-149z" />
<glyph unicode="0" d="M143 369v678q0 202 99.5 294.5t302.5 92.5t302 -92.5t99 -294.5v-678q0 -204 -99 -296.5t-302 -92.5t-302.5 92.5t-99.5 296.5zM295 350q0 -115 64.5 -178t185.5 -63t185.5 62t64.5 177v719q0 116 -64.5 177t-185.5 61t-185.5 -61t-64.5 -177v-717z" />
<glyph unicode="1" d="M219 0v129h275v1026h-275v80q85 34 179 89.5t155 109.5h92v-1305h277v-129h-703z" />
<glyph unicode="2" d="M139 0v170l320 344q80 87 121.5 133t90.5 107.5t71 102.5t37.5 89t15.5 96q0 135 -59 199t-191 64q-74 0 -121.5 -21.5t-73 -70.5t-34.5 -111t-9 -160l-160 16q0 122 19.5 207.5t66 147.5t125.5 91.5t195 29.5q208 0 303.5 -99.5t95.5 -310.5q0 -153 -102 -292.5 t-498 -560.5q-24 -27 -37 -40h623v-131h-799z" />
<glyph unicode="3" d="M139 375v37l152 12v-72q0 -243 250 -243q123 0 186.5 62.5t63.5 180.5v64q0 62 -20 107t-52.5 72t-84.5 43.5t-106.5 22t-126.5 5.5v131q91 1 157.5 13t121.5 39.5t83 78.5t28 125q0 129 -60.5 190.5t-189.5 61.5q-121 0 -185.5 -62.5t-64.5 -177.5v-82l-152 14v45 q0 392 400 392q210 0 306.5 -94.5t96.5 -303.5q0 -112 -53.5 -186t-167.5 -115q86 -29 136 -82.5t67.5 -117.5t17.5 -154q0 -210 -97.5 -305.5t-309.5 -95.5q-202 0 -299 95t-97 300z" />
<glyph unicode="4" d="M92 377v166l492 870h204v-899h177v-137h-177v-377h-151v377h-545zM250 514h387v698h-10l-377 -688v-10z" />
<glyph unicode="5" d="M154 369v41l153 14v-78q0 -114 64.5 -175.5t181.5 -61.5q122 0 187 60.5t65 178.5v193q0 123 -48 178t-165 55q-107 0 -264 -61l-158 35l35 665h704v-129h-559l-22 -428h14q163 55 272 55q76 0 135.5 -19t107 -60t73.5 -113t26 -172v-180q0 -203 -97.5 -295t-299.5 -92 q-206 0 -305.5 91.5t-99.5 297.5z" />
<glyph unicode="6" d="M154 369v673q0 204 99 298t302 94q199 0 297 -89.5t98 -283.5v-31l-151 -16v43q0 248 -244 248q-248 0 -248 -242v-283h12q196 49 295 49q177 0 259.5 -86t82.5 -266v-110q0 -204 -97 -295.5t-304 -91.5q-204 0 -302.5 94t-98.5 295zM307 346q0 -116 63.5 -176.5 t184.5 -60.5q122 0 186 61t64 176v139q0 117 -57.5 166t-180.5 49q-50 0 -126 -14t-134 -33v-307z" />
<glyph unicode="7" d="M139 1026l19 387h790v-151l-454 -1262h-168l462 1268v12h-475l-45 -266z" />
<glyph unicode="8" d="M125 373q0 134 40 215.5t142 144.5q-82 44 -123 128t-41 175q0 202 99.5 300t302.5 98t302 -98t99 -300q0 -91 -41 -175t-123 -128q102 -63 142.5 -145t40.5 -215q0 -202 -105.5 -297.5t-314.5 -95.5t-314.5 95.5t-105.5 297.5zM279 389q0 -143 62 -211.5t204 -68.5 t205 69.5t63 210.5q0 139 -65.5 207t-202.5 68t-201.5 -68t-64.5 -207zM293 1049q0 -125 64 -189.5t188 -64.5t188 64.5t64 189.5q0 256 -252 256t-252 -256z" />
<glyph unicode="9" d="M133 936v111q0 204 97 295.5t305 91.5q204 0 302.5 -94.5t98.5 -295.5v-673q0 -204 -99 -297.5t-302 -93.5q-200 0 -298 89t-98 283v31l152 16v-43q0 -247 244 -247q247 0 247 241v283h-12q-196 -49 -295 -49q-177 0 -259.5 86t-82.5 266zM285 928q0 -117 57 -166 t180 -49q50 0 126 14t134 33v307q0 238 -247 238q-250 0 -250 -238v-139z" />
<glyph unicode=":" horiz-adv-x="409" d="M125 0v193h160v-193h-160zM125 680v192h160v-192h-160z" />
<glyph unicode=";" horiz-adv-x="409" d="M119 -242q44 54 64 110.5t20 131.5h-82v193h160v-193q0 -148 -86 -252zM121 680v192h160v-192h-160z" />
<glyph unicode="&#x3c;" d="M115 494v131l852 430v-168l-680 -328l680 -328v-165q0 -2 -213 105t-426 215z" />
<glyph unicode="=" d="M98 287v137h895v-137h-895zM98 692v137h895v-137h-895z" />
<glyph unicode="&#x3e;" d="M123 66v165l680 328l-680 328v168l852 -430v-131q-54 -27 -142 -72t-275 -139t-311 -156t-124 -61z" />
<glyph unicode="?" horiz-adv-x="905" d="M41 997q0 235 92 345t313 110q206 0 302 -96t96 -301q0 -101 -50.5 -186.5t-175.5 -213.5q-100 -100 -100 -293l-151 3q0 114 22 193.5t98 162.5q125 137 164 202.5t39 149.5q0 130 -60.5 189t-191.5 59q-139 0 -191 -77t-52 -263zM360 0v193h160v-193h-160z" />
<glyph unicode="@" horiz-adv-x="1462" d="M109 508v463q0 133 45.5 235t128.5 165.5t194.5 95.5t249.5 32q117 0 206.5 -13t171.5 -48t135.5 -93.5t84.5 -152.5t31 -221v-221q0 -400 -303 -400q-56 0 -107.5 24t-79.5 77q-141 -99 -248 -99q-74 0 -125 44t-51 114q0 23 4 59l39 342q11 100 77.5 159.5t170.5 59.5 q41 0 180 -22l107 20l-62 -546q-2 -16 -2 -45q0 -46 26 -71.5t75 -25.5q88 0 119.5 76t31.5 254v197q0 121 -24.5 199t-82.5 123.5t-141 63t-212 17.5q-492 0 -492 -405v-451q0 -91 23 -160.5t64.5 -115.5t104.5 -75t138.5 -41.5t171.5 -12.5q226 0 506 49l20 -117 q-28 -7 -78.5 -17t-199.5 -27t-289 -17q-299 0 -453.5 124t-154.5 404zM563 549q0 -94 92 -94t189 88l57 487q-98 10 -147 10q-78 0 -112 -32.5t-42 -110.5l-33 -289q-4 -28 -4 -59z" />
<glyph unicode="A" horiz-adv-x="1198" d="M37 0l438 1479h250l438 -1479h-180l-106 362h-555l-105 -362h-180zM365 514h469l-222 780h-24z" />
<glyph unicode="B" horiz-adv-x="1310" d="M184 0v1479h561q200 0 298 -92t98 -283q0 -255 -170 -318v-16q87 -35 142.5 -123t55.5 -237q0 -198 -99 -304t-304 -106h-582zM356 152h351q280 0 280 276q0 133 -76.5 198.5t-218.5 65.5h-336v-540zM356 844h340q262 0 262 237q0 124 -63.5 185t-194.5 61h-344v-483z " />
<glyph unicode="C" horiz-adv-x="1193" d="M143 401v676q0 225 117.5 323.5t351.5 98.5q231 0 345 -103.5t114 -330.5v-21l-176 -16v59q0 135 -69 195.5t-214 60.5q-297 0 -297 -253v-697q0 -258 297 -258q144 0 213.5 62.5t69.5 197.5v62l176 -17v-24q0 -227 -114.5 -331.5t-344.5 -104.5q-234 0 -351.5 98 t-117.5 323z" />
<glyph unicode="D" horiz-adv-x="1280" d="M184 0v1479h482q235 0 353 -100t118 -326v-629q0 -226 -117 -325t-352 -99h-484zM356 145h322q136 0 211.5 65.5t75.5 190.5v674q0 126 -75.5 192t-211.5 66h-322v-1188z" />
<glyph unicode="E" horiz-adv-x="1077" d="M184 0v1479h803v-152h-631v-483h553v-152h-553v-540h660v-152h-832z" />
<glyph unicode="F" horiz-adv-x="987" d="M184 0v1479h762v-152h-590v-483h512v-152h-512v-692h-172z" />
<glyph unicode="G" horiz-adv-x="1249" d="M143 403v670q0 229 124.5 327.5t369.5 98.5t366 -101.5t121 -332.5v-21l-176 -16v59q0 133 -76.5 197t-234.5 64q-156 0 -239 -62t-83 -199v-692q0 -264 320 -264q319 0 319 266v201h-290v152h462v-349q0 -227 -124.5 -324t-366.5 -97q-244 0 -368 97.5t-124 325.5z" />
<glyph unicode="H" horiz-adv-x="1292" d="M184 0v1479h172v-635h580v635h172v-1479h-172v692h-580v-692h-172z" />
<glyph unicode="I" horiz-adv-x="540" d="M184 0v1479h172v-1479h-172z" />
<glyph unicode="J" horiz-adv-x="624" d="M-18 135h22q147 0 205.5 54t58.5 190v1100h172v-1125q0 -198 -93.5 -286t-291.5 -88q-35 0 -55 2z" />
<glyph unicode="K" horiz-adv-x="1175" d="M184 0v1479h172v-643h19l504 643h217l-426 -549l469 -930h-201l-383 770h-16l-183 -227v-543h-172z" />
<glyph unicode="L" horiz-adv-x="888" d="M184 0v1479h172v-1327h502v-152h-674z" />
<glyph unicode="M" horiz-adv-x="1652" d="M184 0v1479h291l346 -1153h13l342 1153h292v-1479h-159v1327h-17l-395 -1327h-141l-396 1327h-16v-1327h-160z" />
<glyph unicode="N" horiz-adv-x="1314" d="M184 0v1479h226l544 -1182h17v1182h159v-1479h-217l-553 1239h-16v-1239h-160z" />
<glyph unicode="O" horiz-adv-x="1249" d="M143 406v667q0 228 121 327t361 99t360.5 -99t120.5 -327v-667q0 -228 -120.5 -327t-360.5 -99t-361 99t-121 327zM315 391q0 -135 79 -195.5t231 -60.5t230.5 60.5t78.5 195.5v696q0 135 -78.5 195.5t-230.5 60.5t-231 -60.5t-79 -195.5v-696z" />
<glyph unicode="P" horiz-adv-x="1181" d="M184 0v1479h506q211 0 320.5 -112t109.5 -325t-109 -324.5t-321 -111.5h-334v-606h-172zM356 758h308q140 0 206 70.5t66 213.5t-66.5 214t-205.5 71h-308v-569z" />
<glyph unicode="Q" horiz-adv-x="1249" d="M143 580v493q0 228 121 327t361 99t360.5 -99t120.5 -327v-493q0 -210 -105.5 -308.5t-310.5 -107.5v-164h152l-17 -143h-100q-67 0 -113.5 37t-46.5 102v168q-205 8 -313.5 107.5t-108.5 308.5zM315 565q0 -120 63.5 -178.5t186.5 -67.5v228h125v-228q121 6 182.5 65 t61.5 181v522q0 135 -78.5 195.5t-230.5 60.5t-231 -60.5t-79 -195.5v-522z" />
<glyph unicode="R" horiz-adv-x="1280" d="M184 0v1479h514q204 0 315 -110.5t111 -319.5q0 -155 -58.5 -251t-145.5 -134l217 -664h-191l-196 618h-394v-618h-172zM356 770h306q142 0 210 69.5t68 209.5t-68 209t-210 69h-306v-557z" />
<glyph unicode="S" horiz-adv-x="1212" d="M123 406l172 16q11 -148 88 -219.5t229 -71.5q139 0 220 67.5t81 194.5q0 38 -7 68t-17.5 52.5t-34 43t-44 34t-61 29.5t-72.5 27t-89 29q-176 55 -240 87q-139 69 -181 187q-22 62 -22 142q0 208 123.5 307.5t343.5 99.5q213 0 333 -90t134 -287l-172 -16 q-13 128 -83.5 185t-211.5 57q-295 0 -295 -240q0 -35 9 -64.5t21.5 -50.5t39 -41.5t46.5 -33t61.5 -28.5t65.5 -24t75 -24t78.5 -25t73 -26t72 -30.5t63 -35t57.5 -42.5t45 -50.5t36.5 -62t21 -74t8.5 -88.5q0 -212 -128.5 -320t-349.5 -108q-460 0 -489 426z" />
<glyph unicode="T" horiz-adv-x="929" d="M31 1325v154h868v-154h-348v-1325h-172v1325h-348z" />
<glyph unicode="U" horiz-adv-x="1247" d="M164 412v1067h172v-1065q0 -146 70 -214.5t217 -68.5t217.5 68.5t70.5 214.5v1065h172v-1069q0 -224 -116 -327t-344 -103t-343.5 104t-115.5 328z" />
<glyph unicode="V" horiz-adv-x="1105" d="M41 1479h180l326 -1258h12l326 1258h180l-395 -1479h-234z" />
<glyph unicode="W" horiz-adv-x="1648" d="M61 1479h175l227 -1217h12l258 1217h185l264 -1217h12q158 876 219 1217h174l-295 -1479h-205l-258 1217h-12l-256 -1217h-205z" />
<glyph unicode="X" horiz-adv-x="1146" d="M51 0l395 772l-372 707h194l299 -582h13l303 582h192l-375 -707l396 -772h-197l-321 651h-11l-319 -651h-197z" />
<glyph unicode="Y" d="M61 1479h183l297 -715h12l297 715h182l-399 -926v-553h-172v553z" />
<glyph unicode="Z" horiz-adv-x="1042" d="M61 0v193l703 1124v8h-682v154h879v-179l-711 -1136v-10h731v-154h-920z" />
<glyph unicode="[" horiz-adv-x="585" d="M145 -197v1676h359v-119h-211v-1438h211v-119h-359z" />
<glyph unicode="\" horiz-adv-x="587" d="M0 1479h150l438 -1676h-150z" />
<glyph unicode="]" horiz-adv-x="585" d="M82 -78h211v1438h-211v119h358v-1676h-358v119z" />
<glyph unicode="^" d="M72 627q-2 0 100 213l204 426l103 213h131l410 -852h-168l-307 680l-307 -680h-166z" />
<glyph unicode="_" horiz-adv-x="1130" d="M0 -150h1130v-112h-1130v112z" />
<glyph unicode="`" horiz-adv-x="552" d="M121 1528h172l158 -295h-121z" />
<glyph unicode="a" horiz-adv-x="1048" d="M123 305q0 93 31 157.5t92 102t135 56t176 24.5l197 12v148q0 101 -57.5 144.5t-172.5 43.5q-117 0 -171 -49.5t-58 -163.5l-154 17q10 172 111 248.5t287 76.5q366 0 366 -311v-811h-151v119h-11q-136 -139 -319 -139q-144 0 -222.5 88t-78.5 237zM281 309 q0 -188 180 -188q76 0 159 47t134 119v241l-193 -14q-53 -4 -91 -10.5t-76 -21t-61 -36t-37.5 -56t-14.5 -81.5z" />
<glyph unicode="b" horiz-adv-x="1060" d="M164 0v1526h151v-447h9q189 43 284 43q152 0 236 -83t84 -240v-492q0 -153 -75.5 -240t-221.5 -87q-67 0 -150 33t-155 85h-11v-98h-151zM315 260q59 -57 140 -95t145 -38q94 0 134 49.5t40 149.5v460q0 105 -53 155t-166 50q-109 0 -240 -43v-688z" />
<glyph unicode="c" horiz-adv-x="997" d="M133 317v471q0 171 98 252.5t275 81.5q200 0 284 -88.5t84 -290.5l-153 -14v45q0 116 -49 167.5t-164 51.5q-116 0 -169.5 -50t-53.5 -157v-464q0 -114 52 -163.5t169 -49.5q119 0 167 54.5t48 178.5v33l153 -17q0 -202 -84 -290t-284 -88q-183 0 -278 81.5t-95 255.5z " />
<glyph unicode="d" horiz-adv-x="1060" d="M133 307v492q0 157 84 240t236 83q95 0 284 -43h8v447h152v-1526h-152v98h-10q-72 -52 -155 -85t-150 -33q-146 0 -221.5 87t-75.5 240zM287 326q0 -100 40 -149.5t134 -49.5q64 0 144.5 38t139.5 95v688q-131 43 -239 43q-113 0 -166 -50t-53 -155v-460z" />
<glyph unicode="e" horiz-adv-x="1013" d="M133 315v473q0 334 381 334q377 0 377 -334v-276h-608v-197q0 -107 58.5 -156.5t172.5 -49.5q117 0 171 49.5t54 163.5l152 -17q-6 -325 -377 -325q-188 0 -284.5 79.5t-96.5 255.5zM283 641h458v145q0 110 -56.5 158.5t-172.5 48.5q-117 0 -173 -48t-56 -159v-145z" />
<glyph unicode="f" horiz-adv-x="645" d="M20 973v129h197v123q0 151 83.5 225t227.5 74h80l17 -129h-62q-102 0 -148 -43.5t-46 -137.5v-112h219v-129h-219v-973h-152v973h-197z" />
<glyph unicode="g" horiz-adv-x="1030" d="M143 -158q0 72 37 124t94 67v8q-3 2 -9 5t-21 16t-26 28t-20.5 41t-9.5 55q0 115 107 172v11q-150 67 -150 266v182q0 155 95 230t264 75q215 0 305 -116h10q18 58 71 87t120 29v-168h-170q22 -70 22 -137v-182q0 -157 -94 -232t-264 -75q-87 0 -168 22v-125 q0 -45 16 -58t72 -13l258 -2q123 -2 199.5 -60t76.5 -174q0 -77 -25.5 -130t-75 -82.5t-111.5 -41.5t-146 -12h-231q-97 0 -161.5 50.5t-64.5 139.5zM293 -98q0 -60 39 -89.5t106 -29.5h211q67 0 110.5 31.5t43.5 91.5t-42 88.5t-110 28.5h-213q-66 0 -105.5 -30t-39.5 -91z M297 637q0 -93 52.5 -131.5t156.5 -38.5q105 0 156 39t51 131v178q0 91 -51 129.5t-156 38.5q-103 0 -156 -38t-53 -130v-178z" />
<glyph unicode="h" horiz-adv-x="1050" d="M164 0v1526h151v-533h11q203 129 327 129q121 0 187.5 -74.5t66.5 -199.5v-848h-153v776q0 101 -28.5 150t-115.5 49q-127 0 -295 -131v-844h-151z" />
<glyph unicode="i" horiz-adv-x="479" d="M164 0v1102h151v-1102h-151zM164 1319v160h151v-160h-151z" />
<glyph unicode="j" horiz-adv-x="542" d="M-29 -219h62q99 0 146.5 42t47.5 138v1139h152v-1149q0 -150 -82.5 -224.5t-226.5 -74.5h-82zM227 1319v160h148v-160h-148z" />
<glyph unicode="k" horiz-adv-x="1011" d="M164 0v1526h151v-905h11l381 481h188l-293 -365l348 -737h-174l-276 604h-8l-177 -217v-387h-151z" />
<glyph unicode="l" horiz-adv-x="479" d="M164 0v1526h151v-1526h-151z" />
<glyph unicode="m" horiz-adv-x="1564" d="M164 0v1102h151v-109h11q173 129 299 129q153 0 223 -131h10q95 63 171.5 97t148.5 34q115 0 179 -77t64 -199v-846h-151v776q0 107 -24 153t-103 46q-59 0 -134.5 -35.5t-140.5 -93.5v-846h-151v776q0 51 -3.5 81.5t-16 60.5t-39 43.5t-68.5 13.5q-59 0 -134 -36 t-141 -93v-846h-151z" />
<glyph unicode="n" horiz-adv-x="1050" d="M164 0v1102h151v-109h11q203 129 327 129q121 0 187.5 -74.5t66.5 -199.5v-848h-153v776q0 101 -28.5 150t-115.5 49q-63 0 -142.5 -37t-152.5 -94v-844h-151z" />
<glyph unicode="o" horiz-adv-x="1026" d="M133 305v496q0 173 97.5 247t283.5 74q185 0 282 -74t97 -247v-496q0 -170 -96 -247.5t-283 -77.5q-188 0 -284.5 77.5t-96.5 247.5zM285 301q0 -101 57.5 -146.5t171.5 -45.5q113 0 170 46t57 146v498q0 102 -57 148t-170 46q-114 0 -171.5 -46t-57.5 -148v-498z" />
<glyph unicode="p" horiz-adv-x="1060" d="M164 -348v1444h151v-99h11q75 51 157.5 85t147.5 34q146 0 221.5 -87.5t75.5 -240.5v-491q0 -157 -84 -240.5t-236 -83.5q-95 0 -284 43h-9v-364h-151zM315 147q131 -43 240 -43q113 0 166 50t53 155v461q0 100 -40 149.5t-134 49.5q-62 0 -142.5 -38.5t-142.5 -94.5 v-689z" />
<glyph unicode="q" horiz-adv-x="1060" d="M133 307v492q0 157 84 240t236 83q81 0 292 -24l152 24v-1470h-152v446h-10q-72 -52 -155 -85t-150 -33q-146 0 -221.5 87t-75.5 240zM287 326q0 -100 40 -149.5t134 -49.5q64 0 144.5 38t139.5 95v707q-152 24 -239 24q-113 0 -166 -50t-53 -155v-460z" />
<glyph unicode="r" horiz-adv-x="655" d="M164 0v1102h151v-121h11q91 75 154.5 108t150.5 33l18 -174q-32 4 -71 4q-132 0 -263 -121v-831h-151z" />
<glyph unicode="s" horiz-adv-x="1024" d="M123 338l151 14v-14q0 -227 234 -227q108 0 175 42t67 134q0 46 -15.5 77.5t-53.5 54t-83 37t-123 31.5q-174 38 -251 110t-77 214q0 160 101 235.5t278 75.5q194 0 281.5 -83.5t87.5 -274.5l-152 -16v14q0 121 -49.5 176t-165.5 55q-105 0 -167 -43.5t-62 -136.5 q0 -36 11 -64t28.5 -46.5t50.5 -34.5t66 -26.5t86 -23.5q75 -18 124.5 -34.5t98.5 -42.5t76 -58.5t44 -81t17 -112.5q0 -309 -389 -309q-196 0 -289 83.5t-100 274.5z" />
<glyph unicode="t" horiz-adv-x="628" d="M20 973v129h197v280l152 19v-299h219v-129h-219v-664q0 -94 46 -137t148 -43h62l-17 -129h-80q-144 0 -227.5 74t-83.5 225v674h-197z" />
<glyph unicode="u" horiz-adv-x="1050" d="M143 254v848h154v-776q0 -101 28 -150t115 -49q63 0 142.5 37t152.5 94v844h152v-1102h-152v109h-10q-203 -129 -328 -129q-121 0 -187.5 74.5t-66.5 199.5z" />
<glyph unicode="v" horiz-adv-x="923" d="M51 1102h152l254 -901h10l256 901h149l-333 -1102h-154z" />
<glyph unicode="w" horiz-adv-x="1378" d="M61 1102h150l192 -889h11l200 887h148l203 -887h10l190 889h152l-256 -1102h-176l-191 883h-10l-188 -883h-177z" />
<glyph unicode="x" horiz-adv-x="948" d="M61 0l312 582l-297 520h180l213 -410h10l213 410h178l-295 -518l312 -584h-180l-228 463h-8l-229 -463h-181z" />
<glyph unicode="y" horiz-adv-x="921" d="M51 1102h166l264 -762h8l216 762h165l-303 -998l-2 -155q-1 -150 -82.5 -223.5t-224.5 -73.5h-82l-16 129h61q98 0 146.5 43.5t48.5 136.5v143z" />
<glyph unicode="z" horiz-adv-x="841" d="M61 0v162l533 803v8h-514v129h690v-150l-543 -813v-10h553v-129h-719z" />
<glyph unicode="{" horiz-adv-x="614" d="M33 578v118q53 16 94 64t41 121v385q0 89 66 151t167 62h131v-136h-96q-114 0 -114 -126v-365q0 -53 -17 -95t-43 -65t-50.5 -35.5t-45.5 -15.5v-8q17 -3 35.5 -10t40.5 -24t39.5 -40t29 -61t11.5 -84v-351q0 -126 114 -126h96v-134h-131q-101 0 -167 62t-66 151v377 q0 73 -41 121t-94 64z" />
<glyph unicode="|" horiz-adv-x="479" d="M164 -197v1678h151v-1678h-151z" />
<glyph unicode="}" horiz-adv-x="614" d="M82 -63h96q115 0 115 126v351q0 46 11.5 84t29 61t39.5 40t40.5 24t35.5 10v8q-21 3 -45.5 15.5t-50.5 35.5t-43 65t-17 95v365q0 126 -115 126h-96v136h131q101 0 167 -62t66 -151v-385q0 -73 41.5 -121t94.5 -64v-118q-53 -16 -94.5 -64t-41.5 -121v-377 q0 -89 -66 -151t-167 -62h-131v134z" />
<glyph unicode="~" d="M98 580q101 116 230 116q96 0 204 -51q54 -26 81 -37.5t70 -23t81 -11.5q54 0 93.5 26.5t80.5 72.5l53 -125q-102 -117 -229 -117q-98 0 -203 51q-148 72 -233 72q-54 0 -94 -26t-80 -72z" />
<glyph unicode="&#xa1;" horiz-adv-x="495" d="M164 4l37 733h94l37 -733v-336h-168v336zM168 909v193h160v-193h-160z" />
<glyph unicode="&#xa2;" d="M154 369v678q0 202 99 294.5t302 92.5h16l21 178h123l-23 -189q134 -27 202.5 -121t68.5 -233l-156 -20q0 93 -29.5 151t-103.5 86l-133 -1177h8q258 0 258 249v41l160 -22q0 -203 -103.5 -300t-308.5 -97h-29l-26 -209h-123l29 223q-252 63 -252 375zM307 350 q0 -158 117 -215l135 1170h-8q-118 0 -181 -61t-63 -177v-717z" />
<glyph unicode="&#xa3;" d="M82 582v123l166 18v324q0 197 96 292t295 95q188 0 289.5 -91.5t101.5 -273.5l-156 -20q0 127 -56.5 191.5t-178.5 64.5q-238 0 -238 -244v-320l529 66v-123l-529 -63v-490h596v-131h-1h-1h-1h-1h-1h-1h-1h-1h-1h-1h-1h-1h-1h-1h-1h-1h-1h-1h-1h-1h-1h-1h-1h-1h-1h-1h-1 h-1h-1h-1h-1h-1h-1h-1h-1h-1h-1h-1h-1h-1h-1h-1h-1h-1h-1h-1h-1h-1h-1h-1h-1h-1h-1h-1h-1h-1h-1h-1h-1h-1h-1h-1h-1h-1h-1h-1h-1h-1h-1h-1h-1h-1h-1h-1h-1h-1h-1h-1h-1h-1h-1h-1h-1h-1h-1h-1h-1h-1h-1h-1h-1h-1h-1h-1h-1h-1h-1h-1h-1h-1h-1h-1h-1h-1h-1h-1h-1h-1h-1h-1h-1 h-1h-1h-1h-1h-1h-1h-1h-1h-1h-1h-1h-1h-1h-1h-1h-1h-1h-1h-1h-1h-1h-1h-1h-1h-1h-1h-1h-1h-1h-1h-1h-1h-1h-1h-1h-1h-1h-1h-1h-1h-1h-1h-1h-1h-1h-1h-1h-1h-1h-1h-1h-1h-1h-1h-1h-1h-1h-1h-1h-1h-1h-1h-1h-1h-1h-1h-1h-1h-1h-1h-1h-1h-1h-1h-1h-1h-1h-1h-1h-1h-1h-1h-1h-1 h-1h-1h-1h-1h-1h-1h-1h-1h-1h-1h-1h-1h-1h-1h-1h-1h-1h-1h-1h-1h-1h-1h-1h-1h-1h-1h-1h-1h-1h-1h-1h-1h-1h-1h-1h-1h-1h-1h-1h-1h-1h-1h-1h-1h-1h-1h-1h-1h-1h-1h-1h-1h-1h-1h-1h-1h-1h-1h-1h-1h-1h-1h-1h-1h-1h-1h-1h-1h-1h-1h-1h-1h-1h-1h-1h-1h-1h-1h-1h-1h-1h-1h-1h-1 h-1h-1h-1h-1h-1h-1h-1h-1h-1h-1h-1h-1h-1h-1h-1h-1h-1h-1h-1h-1h-1h-1h-1h-1h-1h-1h-1h-1h-1h-1h-1h-1h-1h-1h-1h-1h-1h-1h-1h-1h-1h-1h-1h-1h-1h-1h-1h-1h-1h-1h-1h-1h-1h-1h-1h-1h-1h-1h-1h-1h-1h-1h-1h-1h-1h-1h-1h-1h-1h-1h-1h-1h-1h-1h-1h-1h-1h-1h-1h-1h-1h-1h-1h-1 h-1h-1h-1h-1h-1h-1h-1h-1h-1h-1h-1h-1h-1h-1h-1h-1h-1h-1h-1h-1h-1h-1h-1h-1h-1h-1h-1h-1h-1h-1h-1h-1h-1h-1h-1h-1h-1h-1h-1h-1h-1h-1h-1h-1h-1h-1h-1h-1h-1h-1h-1h-1h-1h-1h-1h-1h-1h-1h-1h-1h-1h-1h-1h-1h-1h-1h-1h-1h-1h-1h-1h-1h-1h-1h-1h-1h-1h-1h-1h-1h-1h-1h-1h-1 h-1h-1h-1h-1h-1h-1h-1h-1h-1h-1h-1h-1h-1h-1h-1h-1h-1h-1h-1h-1h-1h-1h-1h-1h-1h-1h-1h-1h-1h-1h-1h-1h-1h-1h-1h-1h-1h-1h-1h-1h-1h-1h-1h-1h-1h-1h-1h-1h-1h-1h-1h-1h-1h-1h-1h-1h-1h-1h-1h-1h-1h-1h-1h-1h-1h-1h-1h-1h-1h-1h-1h-1h-1h-1h-1h-1h-1h-1h-1h-1h-1h-1h-1h-1 h-1h-1h-1h-1h-1h-1h-1h-1h-1h-1h-1h-1h-1h-1h-1h-1h-1h-1h-1h-1h-1h-1h-1h-1h-1h-1h-1h-1h-1h-1h-1h-1h-1h-1h-1h-1h-1h-1h-1h-1h-1h-1h-1h-1h-1h-1h-1h-1h-1h-1h-1h-1h-1h-1h-1h-1h-1h-1h-1h-1h-1h-1h-1h-1h-1h-1h-1h-1h-1h-1h-1h-1h-1h-1h-1h-1h-1h-1h-1h-1h-1h-1h-1h-1 h-1h-1h-1h-1h-1h-1h-1h-1h-1h-1h-1h-1h-1h-1h-1h-1h-1h-1h-1h-1h-1h-1h-1h-1h-1h-1h-1h-1h-1h-1h-1h-1h-1h-1h-1h-1h-1h-1h-1h-1h-1h-1h-1h-1h-1h-1h-1h-1h-1h-1h-1h-1h-1h-1h-1h-1h-1h-1h-1h-1h-1h-1h-1h-1h-1h-1h-1h-1h-1h-1h-1h-1h-1h-1h-1h-1h-1h-1h-1h-1h-1h-1h-1h-1 h-1h-1h-1h-1h-1h-1h-1h-1h-1h-1h-1h-1h-1h-1h-1h-1h-1h-1h-1h-1h-1h-1h-1h-1h-1h-1h-1h-1h-1h-1h-1h-1h-1h-1h-1h-1h-1h-1h-1h-1h-1h-1h-1h-1h-1h-1h-1h-1h-1h-1h-1h-1h-1h-1h-1h-1h-1h-1h-1h-1h-1h-1h-1h-1h-1h-1h-1h-1h-1h-1h-1h-1h-1h-1h-1h-1h-1h-1h-1h-1h-1h-1h-1h-1 h-1h-1h-1h-1h-1h-1h-1h-1h-1h-1h-1h-1h-1h-1h-1h-1h-1h-1h-1h-1h-1h-1h-1h-1h-1h-1h-1h-1h-1h-1h-1h-1h-1h-1h-1h-1h-1h-1h-1h-1h-1h-1h-1h-1h-1h-1h-1h-1h-1h-1h-1h-1h-1h-1h-1h-1h-1h-1h-1h-1h-1h-1h-1h-1h-1h-1h-1h-1h-1h-1h-1h-1h-1h-1h-1h-1h-1h-1h-1h-1h-1h-1h-1h-1 h-1h-1h-1h-1h-1h-1h-9v131h133v469z" />
<glyph unicode="&#xa4;" d="M106 408l97 94q-76 107 -76 237q0 131 76 238l-97 94l103 109l96 -99q109 74 240 74q128 0 237 -74l99 99l102 -109l-96 -94q76 -107 76 -238q0 -130 -76 -237l96 -94l-102 -109l-99 98q-107 -73 -237 -73q-133 0 -240 73l-96 -98zM287 739q0 -115 74.5 -191.5 t183.5 -76.5t182.5 76.5t73.5 191.5t-73.5 192t-182.5 77t-183.5 -77t-74.5 -192z" />
<glyph unicode="&#xa5;" d="M82 1413h172l283 -682h12l282 682h175l-218 -504l201 25v-121l-252 -27l-65 -149l317 37v-121q-362 -41 -364 -41v-512h-164v496l-367 -41l-2 114l336 37l-57 139l-279 -30v119l230 24z" />
<glyph unicode="&#xa6;" horiz-adv-x="475" d="M164 0v604h147v-604h-147zM164 877v604h147v-604h-147z" />
<glyph unicode="&#xa7;" horiz-adv-x="1083" d="M100 655q0 82 42 150.5t114 103.5q-55 55 -78.5 114t-23.5 144q0 110 53 186t141.5 111t204.5 35q220 0 315 -102t95 -328l-156 -16q0 82 -11 137.5t-38 98.5t-77 63t-126 20q-105 0 -173.5 -51t-68.5 -147q0 -42 12 -71t54.5 -66t107 -76.5t185.5 -106.5q97 -53 158 -97 t95 -87t46 -83t12 -93q0 -85 -42.5 -153.5t-115.5 -102.5q105 -95 105 -254q0 -168 -109 -250t-293 -82q-215 0 -311 104.5t-96 325.5l158 14q0 -162 53.5 -239.5t193.5 -77.5q112 0 178 50t66 151q0 53 -26.5 92t-102 90.5t-235.5 138.5q-129 70 -195.5 126t-88.5 106 t-22 122zM264 614.5q16 -60.5 70 -92.5l266 -153q55 -31 114.5 -14.5t90.5 71.5q32 54 16.5 113t-69.5 90l-267 153q-55 32 -114.5 17t-91.5 -70q-31 -54 -15 -114.5z" />
<glyph unicode="&#xa8;" horiz-adv-x="552" d="M41 1282v197h139v-197h-139zM373 1282v197h139v-197h-139z" />
<glyph unicode="&#xa9;" horiz-adv-x="1124" d="M133 1042q0 206 110.5 332.5t317.5 126.5t318.5 -126.5t111.5 -332.5q0 -205 -111.5 -331.5t-318.5 -126.5t-317.5 126t-110.5 332zM199 1042q0 -179 91.5 -287t270.5 -108t273 108.5t94 286.5t-94 287t-273 109t-270.5 -108.5t-91.5 -287.5zM414 924v235q0 77 40 111.5 t121 34.5q80 0 120 -36t40 -114v-8l-61 -6v20q0 47 -24 68.5t-75 21.5q-102 0 -102 -88v-241q0 -91 102 -91q51 0 75 22t24 69v22l61 -6v-8q0 -80 -40 -116t-120 -36q-81 0 -121 34.5t-40 111.5z" />
<glyph unicode="&#xaa;" horiz-adv-x="628" d="M61 1020q0 59 19 99.5t57.5 63.5t83.5 34t109 16l100 8v72q0 52 -29 74t-90 22t-90.5 -29.5t-30.5 -97.5l-118 10q9 116 71 167.5t176 51.5q228 0 228 -194v-490h-115l-4 54q-69 -66 -176 -66q-92 0 -141.5 55.5t-49.5 149.5zM182 1024q0 -98 90 -98q43 0 86.5 24 t71.5 64v123l-98 -9q-72 -5 -111 -27.5t-39 -76.5z" />
<glyph unicode="&#xab;" horiz-adv-x="849" d="M82 553l237 352l127 -12l-213 -344l207 -338l-121 -14zM424 553l238 352l126 -12l-213 -344l207 -338l-120 -14z" />
<glyph unicode="&#xac;" d="M100 735v137h848v-587h-149v450h-699z" />
<glyph unicode="&#xad;" horiz-adv-x="681" d="M92 492v131h502v-131h-502z" />
<glyph unicode="&#xae;" horiz-adv-x="1124" d="M131 1042q0 206 110.5 332.5t317.5 126.5t318.5 -126.5t111.5 -332.5q0 -205 -111.5 -331.5t-318.5 -126.5t-317.5 126t-110.5 332zM197 1042q0 -179 91.5 -287t270.5 -108t273 108.5t94 286.5t-94 287t-273 109t-270.5 -108.5t-91.5 -287.5zM412 786v517h180 q71 0 109 -38.5t38 -111.5q0 -104 -71 -135l75 -232h-65l-70 215h-137v-215h-59zM471 1055h107q98 0 98 98q0 96 -98 96h-107v-194z" />
<glyph unicode="&#xaf;" horiz-adv-x="552" d="M16 1389v90h521v-90h-521z" />
<glyph unicode="&#xb0;" horiz-adv-x="727" d="M92 1206q0 136 71 214.5t202 78.5t200.5 -78.5t69.5 -214.5t-71 -214.5t-202 -78.5t-200.5 78.5t-69.5 214.5zM195 1206q0 -202 167 -202q170 0 170 202q0 95 -41.5 149t-128.5 54q-167 0 -167 -203z" />
<glyph unicode="&#xb1;" d="M98 0v137h895v-137h-895zM98 633v135h375v330h148v-330h372v-135h-372v-342h-148v342h-375z" />
<glyph unicode="&#xb2;" horiz-adv-x="688" d="M80 594v113l201 217q81 88 117 131.5t62.5 95t26.5 98.5q0 81 -34 119.5t-111 38.5q-85 0 -113 -52t-28 -173l-117 10q0 159 58 233t204 74q134 0 196 -63t62 -199q0 -87 -53.5 -168.5t-222.5 -261.5l-113 -121h381v-92h-516z" />
<glyph unicode="&#xb3;" horiz-adv-x="688" d="M80 834v30l110 4v-49q0 -145 148 -145q147 0 147 145v41q0 45 -17.5 75.5t-52 46.5t-74.5 22t-97 6v92q118 2 179.5 34.5t61.5 118.5q0 78 -35.5 115t-111.5 37q-69 0 -108.5 -38t-39.5 -105v-58l-110 11v32q0 250 258 250q134 0 197 -61t63 -193q0 -134 -129 -188 q129 -56 129 -219q0 -133 -63.5 -194.5t-200.5 -61.5q-129 0 -191.5 60.5t-62.5 191.5z" />
<glyph unicode="&#xb4;" horiz-adv-x="552" d="M121 1233l158 295h172l-209 -295h-121z" />
<glyph unicode="&#xb5;" horiz-adv-x="1107" d="M86 -348l174 1450h150l-91 -789q-4 -32 -4 -55q0 -66 38.5 -100.5t107.5 -34.5q132 0 280 129l99 850h151l-127 -1102h-145l12 109h-12q-161 -127 -332 -127q-51 0 -111 16l-43 -346h-147z" />
<glyph unicode="&#xb6;" horiz-adv-x="1159" d="M102 1094q0 190 98.5 286.5t286.5 96.5h570v-123h-135v-1702h-127v1702h-179v-1702h-127v1071q-179 0 -283 101t-104 270z" />
<glyph unicode="&#xb7;" horiz-adv-x="405" d="M123 397v242h160v-242h-160z" />
<glyph unicode="&#xb8;" horiz-adv-x="552" d="M70 -391h213q66 0 97.5 14.5t31.5 57.5q0 41 -27 56t-78 15h-47q-56 0 -88.5 35t-32.5 84q0 44 24.5 73.5t67.5 37.5v-54q0 -45 15 -65.5t59 -20.5h41q76 -2 122 -43.5t46 -109.5q0 -97 -52 -133.5t-163 -36.5h-115q-96 0 -114 90z" />
<glyph unicode="&#xb9;" horiz-adv-x="688" d="M129 594v92h172v627h-172v61q129 51 213 125h70v-813h172v-92h-455z" />
<glyph unicode="&#xba;" horiz-adv-x="616" d="M68 1020v291q0 108 61 154t176 46q114 0 175 -46.5t61 -153.5v-291q0 -205 -236 -205q-116 0 -176.5 49t-60.5 156zM184 1018q0 -52 30 -75t91 -23q59 0 89 23t30 75v291q0 100 -119 100q-121 0 -121 -100v-291z" />
<glyph unicode="&#xbb;" horiz-adv-x="849" d="M61 209l213 344l-204 340l118 12l238 -356l-238 -352zM403 209l213 344l-204 340l118 12l238 -356l-238 -352z" />
<glyph unicode="&#xbc;" horiz-adv-x="1568" d="M117 594v92h172v627h-172v61q129 51 213 125h69v-813h172v-92h-454zM326 0l813 1524h102l-813 -1524h-102zM885 236v106l311 551h139v-561h111v-96h-111v-236h-110v236h-340zM1008 332h217v399h-8l-209 -391v-8z" />
<glyph unicode="&#xbd;" horiz-adv-x="1568" d="M117 594v92h172v627h-172v61q129 51 213 125h69v-813h172v-92h-454zM315 0l813 1524h103l-813 -1524h-103zM940 0v113l201 217q82 89 117.5 131.5t62.5 94.5t27 99q0 81 -34.5 119.5t-111.5 38.5q-85 0 -113 -52t-28 -173l-117 10q0 159 58 233t204 74q134 0 196 -63 t62 -199q0 -87 -53.5 -168.5t-222.5 -261.5l-113 -121h381v-92h-516z" />
<glyph unicode="&#xbe;" horiz-adv-x="1568" d="M127 834v30l111 4v-49q0 -145 147 -145t147 145v41q0 87 -62 118.5t-179 31.5v92q118 2 179.5 34.5t61.5 118.5q0 78 -35.5 115t-111.5 37q-69 0 -108 -38t-39 -105v-58l-111 11v32q0 250 258 250q134 0 197 -61t63 -193q0 -134 -129 -188q129 -56 129 -219 q0 -133 -63.5 -194.5t-200.5 -61.5q-129 0 -191.5 60.5t-62.5 191.5zM367 0l813 1524h102l-813 -1524h-102zM885 236v106l311 551h139v-561h111v-96h-111v-236h-110v236h-340zM1008 332h217v399h-8l-209 -391v-8z" />
<glyph unicode="&#xbf;" horiz-adv-x="905" d="M61 49q0 101 50.5 186.5t175.5 213.5q100 100 100 292l152 -2q0 -113 -22.5 -193t-98.5 -163q-125 -137 -164 -202.5t-39 -149.5q0 -130 60.5 -189t191.5 -59q139 0 191.5 77t52.5 263l153 -17q0 -235 -92 -344.5t-313 -109.5q-206 0 -302 96t-96 301zM385 911v193h160 v-193h-160z" />
<glyph unicode="&#xc0;" horiz-adv-x="1198" d="M37 0l438 1479h250l438 -1479h-180l-106 362h-555l-105 -362h-180zM365 514h469l-222 780h-24zM367 1851h172l157 -295h-121z" />
<glyph unicode="&#xc1;" horiz-adv-x="1198" d="M37 0h180l105 362h555l106 -362h180l-438 1479h-250zM365 514l223 780h24l222 -780h-469zM520 1554l158 295h172l-209 -295h-121z" />
<glyph unicode="&#xc2;" horiz-adv-x="1198" d="M37 0l438 1479h250l438 -1479h-180l-106 362h-555l-105 -362h-180zM350 1556l193 295h114l193 -295h-127l-123 203l-123 -203h-127zM365 514h469l-222 780h-24z" />
<glyph unicode="&#xc3;" horiz-adv-x="1198" d="M37 0l438 1479h250l438 -1479h-180l-106 362h-555l-105 -362h-180zM264 1655q10 84 60.5 130t121.5 46q34 0 156 -31q14 -4 45.5 -13.5t53.5 -14.5t38 -5q47 0 71 21.5t42 62.5l92 -18q-10 -84 -60.5 -130t-121.5 -46q-52 0 -156 31q-112 32 -137 32q-47 0 -71 -21.5 t-42 -62.5zM365 514h469l-222 780h-24z" />
<glyph unicode="&#xc4;" horiz-adv-x="1198" d="M37 0l438 1479h250l438 -1479h-180l-106 362h-555l-105 -362h-180zM365 514h469l-222 780h-24zM367 1606v196h139v-196h-139zM698 1606v196h140v-196h-140z" />
<glyph unicode="&#xc5;" horiz-adv-x="1198" d="M37 0l438 1479h250l438 -1479h-180l-106 362h-555l-105 -362h-180zM365 514h469l-222 780h-24zM401 1765q0 97 52 149t149 52t149 -52t52 -149t-52 -148.5t-149 -51.5t-149 51.5t-52 148.5zM498 1765q0 -120 104 -120q58 0 80.5 29t22.5 91q0 61 -22.5 90t-80.5 29 t-81 -29t-23 -90z" />
<glyph unicode="&#xc6;" horiz-adv-x="1595" d="M0 0l586 1479h919v-146h-590v-491h512v-146h-512v-551h619v-145h-791v352h-409l-139 -352h-195zM387 500h356v833h-32z" />
<glyph unicode="&#xc7;" horiz-adv-x="1193" d="M143 401v676q0 225 117.5 323.5t351.5 98.5q231 0 345 -103.5t114 -330.5v-21l-176 -16v59q0 135 -69 195.5t-214 60.5q-297 0 -297 -253v-697q0 -258 297 -258q144 0 213.5 62.5t69.5 197.5v62l176 -17v-24q0 -227 -114.5 -331.5t-344.5 -104.5q-234 0 -351.5 98 t-117.5 323zM424 -391h213q66 0 97.5 14.5t31.5 57.5q0 41 -26.5 56t-77.5 15h-48q-56 0 -88 35t-32 84q0 44 24.5 73.5t67.5 37.5v-54q0 -45 14.5 -65.5t58.5 -20.5h41q76 -2 122 -43.5t46 -109.5q0 -97 -52 -133.5t-163 -36.5h-114q-97 0 -115 90z" />
<glyph unicode="&#xc8;" horiz-adv-x="1077" d="M184 0v1479h803v-152h-631v-483h553v-152h-553v-540h660v-152h-832zM393 1851h172l158 -295h-121z" />
<glyph unicode="&#xc9;" horiz-adv-x="1077" d="M184 0h832v152h-660v540h553v152h-553v483h631v152h-803v-1479zM479 1556l158 295h172l-209 -295h-121z" />
<glyph unicode="&#xca;" horiz-adv-x="1077" d="M184 0v1479h803v-152h-631v-483h553v-152h-553v-540h660v-152h-832zM352 1556l193 295h114l193 -295h-127l-123 203l-123 -203h-127z" />
<glyph unicode="&#xcb;" horiz-adv-x="1077" d="M184 0v1479h803v-152h-631v-483h553v-152h-553v-540h660v-152h-832zM367 1606v196h139v-196h-139zM698 1606v196h140v-196h-140z" />
<glyph unicode="&#xcc;" horiz-adv-x="540" d="M12 1851h172l158 -295h-121zM186 0v1479h172v-1479h-172z" />
<glyph unicode="&#xcd;" horiz-adv-x="540" d="M184 0h172v1479h-172v-1479zM207 1556l158 295h172l-209 -295h-121z" />
<glyph unicode="&#xce;" horiz-adv-x="540" d="M20 1556l193 295h115l192 -295h-127l-123 203l-123 -203h-127zM184 0v1479h172v-1479h-172z" />
<glyph unicode="&#xcf;" horiz-adv-x="540" d="M35 1606v196h139v-196h-139zM184 0v1479h172v-1479h-172zM367 1606v196h139v-196h-139z" />
<glyph unicode="&#xd0;" horiz-adv-x="1280" d="M-39 713v125h223v641h490q234 0 348.5 -99.5t114.5 -326.5v-629q0 -227 -113.5 -325.5t-347.5 -98.5h-492v713h-223zM356 145h322q142 0 214.5 61.5t72.5 192.5v678q0 256 -287 256h-322v-495h285v-125h-285v-568z" />
<glyph unicode="&#xd1;" horiz-adv-x="1314" d="M184 0v1479h226l544 -1182h17v1182h159v-1479h-217l-553 1239h-16v-1239h-160zM315 1655q10 84 60.5 130t122.5 46q33 0 155 -31q14 -3 46 -13t54 -15t38 -5q47 0 70.5 21t41.5 63l92 -18q-10 -84 -60.5 -130t-121.5 -46q-52 0 -156 31q-112 32 -137 32q-47 0 -70.5 -21 t-41.5 -63z" />
<glyph unicode="&#xd2;" horiz-adv-x="1249" d="M143 406v667q0 228 121 327t361 99t360.5 -99t120.5 -327v-667q0 -228 -120.5 -327t-360.5 -99t-361 99t-121 327zM315 391q0 -135 79 -195.5t231 -60.5t230.5 60.5t78.5 195.5v696q0 135 -78.5 195.5t-230.5 60.5t-231 -60.5t-79 -195.5v-696zM397 1851h172l158 -295 h-121z" />
<glyph unicode="&#xd3;" horiz-adv-x="1249" d="M143 406q0 -228 121 -327t361 -99t360.5 99t120.5 327v667q0 228 -120.5 327t-360.5 99t-361 -99t-121 -327v-667zM315 391v696q0 135 79 195.5t231 60.5t230.5 -60.5t78.5 -195.5v-696q0 -135 -78.5 -195.5t-230.5 -60.5t-231 60.5t-79 195.5zM524 1556l158 295h172 l-209 -295h-121z" />
<glyph unicode="&#xd4;" horiz-adv-x="1249" d="M143 406v667q0 228 121 327t361 99t360.5 -99t120.5 -327v-667q0 -228 -120.5 -327t-360.5 -99t-361 99t-121 327zM315 391q0 -135 79 -195.5t231 -60.5t230.5 60.5t78.5 195.5v696q0 135 -78.5 195.5t-230.5 60.5t-231 -60.5t-79 -195.5v-696zM391 1556l193 295h114 l193 -295h-127l-123 203l-123 -203h-127z" />
<glyph unicode="&#xd5;" horiz-adv-x="1249" d="M143 406v667q0 228 121 327t361 99t360.5 -99t120.5 -327v-667q0 -228 -120.5 -327t-360.5 -99t-361 99t-121 327zM293 1655q10 84 60.5 130t121.5 46q34 0 156 -31q14 -4 45.5 -13.5t53.5 -14.5t38 -5q47 0 71 21.5t42 62.5l92 -18q-10 -84 -60.5 -130t-121.5 -46 q-52 0 -156 31q-112 32 -137 32q-47 0 -71 -21.5t-42 -62.5zM315 391q0 -135 79 -195.5t231 -60.5t230.5 60.5t78.5 195.5v696q0 135 -78.5 195.5t-230.5 60.5t-231 -60.5t-79 -195.5v-696z" />
<glyph unicode="&#xd6;" horiz-adv-x="1249" d="M143 406v667q0 228 121 327t361 99t360.5 -99t120.5 -327v-667q0 -228 -120.5 -327t-360.5 -99t-361 99t-121 327zM315 391q0 -135 79 -195.5t231 -60.5t230.5 60.5t78.5 195.5v696q0 135 -78.5 195.5t-230.5 60.5t-231 -60.5t-79 -195.5v-696zM403 1606v196h140v-196 h-140zM735 1606v196h139v-196h-139z" />
<glyph unicode="&#xd7;" d="M72 184l377 375l-377 377l100 98l373 -375l373 375l100 -98l-375 -377l375 -375l-100 -100l-373 375l-373 -375z" />
<glyph unicode="&#xd8;" horiz-adv-x="1286" d="M154 -168l118 254q-112 106 -112 320v667q0 228 120.5 327t360.5 99q163 0 266 -43l88 191h138l-119 -258q108 -108 108 -316v-667q0 -228 -120.5 -327t-360.5 -99q-163 0 -264 38l-86 -186h-137zM332 459q0 -137 18 -178h10l478 1024q-75 38 -197 38 q-152 0 -230.5 -60.5t-78.5 -195.5v-628zM453 172q74 -37 188 -37q152 0 230.5 60.5t78.5 195.5v645q0 109 -16 160h-8z" />
<glyph unicode="&#xd9;" horiz-adv-x="1247" d="M164 412v1067h172v-1065q0 -146 70 -214.5t217 -68.5t217.5 68.5t70.5 214.5v1065h172v-1069q0 -224 -116 -327t-344 -103t-343.5 104t-115.5 328zM403 1851h172l158 -295h-121z" />
<glyph unicode="&#xda;" horiz-adv-x="1247" d="M164 412q0 -224 115.5 -328t343.5 -104t344 103t116 327v1069h-172v-1065q0 -146 -70.5 -214.5t-217.5 -68.5t-217 68.5t-70 214.5v1065h-172v-1067zM510 1556l158 295h172l-209 -295h-121z" />
<glyph unicode="&#xdb;" horiz-adv-x="1247" d="M164 412v1067h172v-1065q0 -146 70 -214.5t217 -68.5t217.5 68.5t70.5 214.5v1065h172v-1069q0 -224 -116 -327t-344 -103t-343.5 104t-115.5 328zM371 1556l192 295h115l192 -295h-127l-122 203l-123 -203h-127z" />
<glyph unicode="&#xdc;" horiz-adv-x="1247" d="M164 412v1067h172v-1065q0 -146 70 -214.5t217 -68.5t217.5 68.5t70.5 214.5v1065h172v-1069q0 -224 -116 -327t-344 -103t-343.5 104t-115.5 328zM395 1606v196h140v-196h-140zM727 1606v196h139v-196h-139z" />
<glyph unicode="&#xdd;" d="M61 1479l400 -926v-553h172v553l399 926h-182l-297 -715h-12l-297 715h-183zM455 1556l157 295h172l-209 -295h-120z" />
<glyph unicode="&#xde;" horiz-adv-x="1181" d="M184 0v1479h172v-267h344q204 0 312 -112t108 -324t-108.5 -324t-311.5 -112h-344v-340h-172zM356 492h314q266 0 266 284q0 285 -266 285h-314v-569z" />
<glyph unicode="&#xdf;" horiz-adv-x="1083" d="M164 0v1188q0 168 97.5 252t273.5 84q179 0 277.5 -85.5t98.5 -260.5v-111q0 -109 -37 -164.5t-118 -89.5v-10q114 -36 154 -110t40 -212v-153q0 -167 -91.5 -247.5t-278.5 -80.5h-64l-14 131h63q115 0 171.5 47.5t56.5 151.5v192q0 50 -15 86.5t-39.5 58.5t-64 34.5 t-81 17t-97.5 4.5v129q71 0 127.5 16.5t95.5 59t39 106.5v156q0 99 -56 152t-161 53q-109 0 -167.5 -51.5t-58.5 -151.5v-1192h-151z" />
<glyph unicode="&#xe0;" horiz-adv-x="1048" d="M123 305q0 93 31 157.5t92 102t135 56t176 24.5l197 12v148q0 101 -57.5 144.5t-172.5 43.5q-117 0 -171 -49.5t-58 -163.5l-154 17q10 172 111 248.5t287 76.5q366 0 366 -311v-811h-151v119h-11q-136 -139 -319 -139q-144 0 -222.5 88t-78.5 237zM281 309 q0 -188 180 -188q76 0 159 47t134 119v241l-193 -14q-53 -4 -91 -10.5t-76 -21t-61 -36t-37.5 -56t-14.5 -81.5zM315 1528h172l158 -295h-121z" />
<glyph unicode="&#xe1;" horiz-adv-x="1048" d="M123 305q0 -149 78.5 -237t222.5 -88q183 0 319 139h11v-119h151v811q0 311 -366 311q-186 0 -287 -76.5t-111 -248.5l154 -17q4 114 58 163.5t171 49.5q115 0 172.5 -43.5t57.5 -144.5v-148l-197 -12q-102 -6 -176 -24.5t-135 -56t-92 -102t-31 -157.5zM281 309 q0 47 14.5 81.5t37.5 56t61 36t76 21t91 10.5l193 14v-241q-51 -72 -134 -119t-159 -47q-180 0 -180 188zM453 1233l157 295h172l-209 -295h-120z" />
<glyph unicode="&#xe2;" horiz-adv-x="1048" d="M123 305q0 93 31 157.5t92 102t135 56t176 24.5l197 12v148q0 101 -57.5 144.5t-172.5 43.5q-117 0 -171 -49.5t-58 -163.5l-154 17q10 172 111 248.5t287 76.5q366 0 366 -311v-811h-151v119h-11q-136 -139 -319 -139q-144 0 -222.5 88t-78.5 237zM281 309 q0 -188 180 -188q76 0 159 47t134 119v241l-193 -14q-53 -4 -91 -10.5t-76 -21t-61 -36t-37.5 -56t-14.5 -81.5zM295 1233l192 295h115l193 -295h-127l-123 203l-123 -203h-127z" />
<glyph unicode="&#xe3;" horiz-adv-x="1048" d="M123 305q0 93 31 157.5t92 102t135 56t176 24.5l197 12v148q0 101 -57.5 144.5t-172.5 43.5q-117 0 -171 -49.5t-58 -163.5l-154 17q10 172 111 248.5t287 76.5q366 0 366 -311v-811h-151v119h-11q-136 -139 -319 -139q-144 0 -222.5 88t-78.5 237zM184 1331 q10 84 60.5 130t122.5 46q37 0 155 -30q14 -4 45.5 -13.5t53.5 -14.5t38 -5q47 0 71 21.5t42 62.5l92 -19q-10 -84 -60.5 -130t-121.5 -46q-52 0 -156 31q-10 3 -36 10.5t-39 11.5t-31.5 7.5t-30.5 3.5q-47 0 -71 -21.5t-42 -62.5zM281 309q0 -188 180 -188q76 0 159 47 t134 119v241l-193 -14q-53 -4 -91 -10.5t-76 -21t-61 -36t-37.5 -56t-14.5 -81.5z" />
<glyph unicode="&#xe4;" horiz-adv-x="1048" d="M123 305q0 93 31 157.5t92 102t135 56t176 24.5l197 12v148q0 101 -57.5 144.5t-172.5 43.5q-117 0 -171 -49.5t-58 -163.5l-154 17q10 172 111 248.5t287 76.5q366 0 366 -311v-811h-151v119h-11q-136 -139 -319 -139q-144 0 -222.5 88t-78.5 237zM281 309 q0 -188 180 -188q76 0 159 47t134 119v241l-193 -14q-53 -4 -91 -10.5t-76 -21t-61 -36t-37.5 -56t-14.5 -81.5zM289 1282v197h139v-197h-139zM621 1282v197h139v-197h-139z" />
<glyph unicode="&#xe5;" horiz-adv-x="1048" d="M123 305q0 93 31 157.5t92 102t135 56t176 24.5l197 12v148q0 101 -57.5 144.5t-172.5 43.5q-117 0 -171 -49.5t-58 -163.5l-154 17q10 172 111 248.5t287 76.5q366 0 366 -311v-811h-151v119h-11q-136 -139 -319 -139q-144 0 -222.5 88t-78.5 237zM281 309 q0 -188 180 -188q76 0 159 47t134 119v241l-193 -14q-53 -4 -91 -10.5t-76 -21t-61 -36t-37.5 -56t-14.5 -81.5zM334 1442q0 97 52 148.5t149 51.5t148.5 -51.5t51.5 -148.5t-51.5 -149t-148.5 -52t-149 52t-52 149zM430 1442q0 -121 105 -121q57 0 79.5 29.5t22.5 91.5 t-22 90.5t-80 28.5t-81.5 -29t-23.5 -90z" />
<glyph unicode="&#xe6;" horiz-adv-x="1646" d="M123 305q0 93 31 158.5t91 103t134.5 56t175.5 24.5l203 10v148q0 100 -59.5 144t-174.5 44q-117 0 -171 -49.5t-58 -163.5l-154 17q10 172 111 248.5t287 76.5q210 0 299 -96q93 96 305 96q381 0 381 -334v-266h-617v-207q0 -206 236 -206q118 0 173.5 50t55.5 163 l152 -17q-6 -325 -381 -325q-281 0 -355 170q-85 -88 -172.5 -129t-191.5 -41q-144 0 -222.5 88t-78.5 237zM281 309q0 -188 180 -188q77 0 161.5 47t135.5 119v241l-199 -10q-65 -3 -112 -14t-86.5 -33.5t-59.5 -63t-20 -98.5zM907 651h467v135q0 109 -58.5 158t-174.5 49 q-118 0 -176 -48t-58 -159v-135z" />
<glyph unicode="&#xe7;" horiz-adv-x="997" d="M133 317v471q0 171 98 252.5t275 81.5q200 0 284 -88.5t84 -290.5l-153 -14v45q0 116 -49 167.5t-164 51.5q-116 0 -169.5 -50t-53.5 -157v-464q0 -114 52 -163.5t169 -49.5q119 0 167 54.5t48 178.5v33l153 -17q0 -202 -84 -290t-284 -88q-183 0 -278 81.5t-95 255.5z M322 -391h213q66 0 97.5 14.5t31.5 57.5q0 41 -27 56t-78 15h-47q-56 0 -88.5 35t-32.5 84q0 44 24.5 73.5t67.5 37.5v-54q0 -45 15 -65.5t59 -20.5h41q76 -2 122 -43.5t46 -109.5q0 -97 -52 -133.5t-163 -36.5h-115q-96 0 -114 90z" />
<glyph unicode="&#xe8;" horiz-adv-x="1013" d="M133 315v473q0 334 381 334q377 0 377 -334v-276h-608v-197q0 -107 58.5 -156.5t172.5 -49.5q117 0 171 49.5t54 163.5l152 -17q-6 -325 -377 -325q-188 0 -284.5 79.5t-96.5 255.5zM283 641h458v145q0 110 -56.5 158.5t-172.5 48.5q-117 0 -173 -48t-56 -159v-145z M295 1528h172l158 -295h-121z" />
<glyph unicode="&#xe9;" horiz-adv-x="1013" d="M133 315q0 -176 96.5 -255.5t284.5 -79.5q371 0 377 325l-152 17q0 -114 -54 -163.5t-171 -49.5q-114 0 -172.5 49.5t-58.5 156.5v197h608v276q0 334 -377 334q-381 0 -381 -334v-473zM283 641v145q0 111 56 159t173 48q116 0 172.5 -48.5t56.5 -158.5v-145h-458z M422 1233l158 295h172l-209 -295h-121z" />
<glyph unicode="&#xea;" horiz-adv-x="1013" d="M133 315v473q0 334 381 334q377 0 377 -334v-276h-608v-197q0 -107 58.5 -156.5t172.5 -49.5q117 0 171 49.5t54 163.5l152 -17q-6 -325 -377 -325q-188 0 -284.5 79.5t-96.5 255.5zM270 1233l193 295h115l192 -295h-127l-123 203l-123 -203h-127zM283 641h458v145 q0 110 -56.5 158.5t-172.5 48.5q-117 0 -173 -48t-56 -159v-145z" />
<glyph unicode="&#xeb;" horiz-adv-x="1013" d="M133 315v473q0 334 381 334q377 0 377 -334v-276h-608v-197q0 -107 58.5 -156.5t172.5 -49.5q117 0 171 49.5t54 163.5l152 -17q-6 -325 -377 -325q-188 0 -284.5 79.5t-96.5 255.5zM276 1282v197h140v-197h-140zM283 641h458v145q0 110 -56.5 158.5t-172.5 48.5 q-117 0 -173 -48t-56 -159v-145zM608 1282v197h140v-197h-140z" />
<glyph unicode="&#xec;" horiz-adv-x="479" d="M-20 1528h172l157 -295h-121zM166 0v1102h147v-1102h-147z" />
<glyph unicode="&#xed;" horiz-adv-x="479" d="M164 0h147v1102h-147v-1102zM166 1233l158 295h172l-209 -295h-121z" />
<glyph unicode="&#xee;" horiz-adv-x="479" d="M-10 1233l192 295h115l192 -295h-127l-122 203l-123 -203h-127zM164 0v1102h147v-1102h-147z" />
<glyph unicode="&#xef;" horiz-adv-x="479" d="M4 1282v197h139v-197h-139zM166 0v1102h147v-1102h-147zM336 1282v197h139v-197h-139z" />
<glyph unicode="&#xf0;" horiz-adv-x="1052" d="M133 305v391q0 154 84.5 239t233.5 85q115 0 274 -37h10q-5 58 -33 129.5t-71 130.5l-250 -94l-45 117l227 86q-50 69 -98 121l131 51q59 -66 100 -121l224 86l51 -115l-201 -78q64 -104 94.5 -200.5t30.5 -223.5v-567q0 -170 -96.5 -247.5t-284.5 -77.5t-284.5 77.5 t-96.5 247.5zM285 301q0 -100 57 -142t172 -42t171 42.5t56 141.5v539q-133 45 -237 45q-116 0 -167.5 -47.5t-51.5 -159.5v-377z" />
<glyph unicode="&#xf1;" horiz-adv-x="1050" d="M164 0v1102h151v-109h11q203 129 327 129q121 0 187.5 -74.5t66.5 -199.5v-848h-153v776q0 101 -28.5 150t-115.5 49q-63 0 -142.5 -37t-152.5 -94v-844h-151zM178 1352q10 84 60.5 130t121.5 46q34 0 156 -31q14 -4 45.5 -13.5t53.5 -14.5t38 -5q47 0 71 21.5t42 62.5 l92 -18q-10 -84 -60.5 -130t-121.5 -46q-55 0 -156 30q-10 3 -36 10.5t-39 11.5t-31.5 7.5t-30.5 3.5q-47 0 -71 -21.5t-42 -62.5z" />
<glyph unicode="&#xf2;" horiz-adv-x="1026" d="M133 305v496q0 173 97.5 247t283.5 74q185 0 282 -74t97 -247v-496q0 -170 -96 -247.5t-283 -77.5q-188 0 -284.5 77.5t-96.5 247.5zM285 301q0 -101 57.5 -146.5t171.5 -45.5q113 0 170 46t57 146v498q0 102 -57 148t-170 46q-114 0 -171.5 -46t-57.5 -148v-498z M307 1528h172l158 -295h-121z" />
<glyph unicode="&#xf3;" horiz-adv-x="1026" d="M133 305q0 -170 96.5 -247.5t284.5 -77.5q187 0 283 77.5t96 247.5v496q0 173 -97 247t-282 74q-186 0 -283.5 -74t-97.5 -247v-496zM285 301v498q0 102 57.5 148t171.5 46q113 0 170 -46t57 -148v-498q0 -100 -57 -146t-170 -46q-114 0 -171.5 45.5t-57.5 146.5z M414 1233l157 295h172l-208 -295h-121z" />
<glyph unicode="&#xf4;" horiz-adv-x="1026" d="M133 305v496q0 173 97.5 247t283.5 74q185 0 282 -74t97 -247v-496q0 -170 -96 -247.5t-283 -77.5q-188 0 -284.5 77.5t-96.5 247.5zM266 1233l193 295h114l193 -295h-127l-123 203l-123 -203h-127zM285 301q0 -101 57.5 -146.5t171.5 -45.5q113 0 170 46t57 146v498 q0 102 -57 148t-170 46q-114 0 -171.5 -46t-57.5 -148v-498z" />
<glyph unicode="&#xf5;" horiz-adv-x="1026" d="M133 305v496q0 173 97.5 247t283.5 74q185 0 282 -74t97 -247v-496q0 -170 -96 -247.5t-283 -77.5q-188 0 -284.5 77.5t-96.5 247.5zM168 1352q10 84 60.5 130t121.5 46q34 0 156 -31q14 -4 45.5 -13.5t53.5 -14.5t38 -5q47 0 71 21.5t42 62.5l92 -18q-10 -84 -60.5 -130 t-121.5 -46q-55 0 -156 30q-10 3 -36 10.5t-39 11.5t-31.5 7.5t-30.5 3.5q-47 0 -71 -21.5t-42 -62.5zM285 301q0 -101 57.5 -146.5t171.5 -45.5q113 0 170 46t57 146v498q0 102 -57 148t-170 46q-114 0 -171.5 -46t-57.5 -148v-498z" />
<glyph unicode="&#xf6;" horiz-adv-x="1026" d="M133 305v496q0 173 97.5 247t283.5 74q185 0 282 -74t97 -247v-496q0 -170 -96 -247.5t-283 -77.5q-188 0 -284.5 77.5t-96.5 247.5zM281 1282v197h139v-197h-139zM285 301q0 -101 57.5 -146.5t171.5 -45.5q113 0 170 46t57 146v498q0 102 -57 148t-170 46 q-114 0 -171.5 -46t-57.5 -148v-498zM612 1282v197h140v-197h-140z" />
<glyph unicode="&#xf7;" d="M102 492v133h893v-133h-893zM467 41v192h160v-192h-160zM467 885v192h160v-192h-160z" />
<glyph unicode="&#xf8;" horiz-adv-x="1107" d="M139 -221l127 284q-92 89 -92 242v496q0 173 97.5 247t283.5 74q62 0 168 -18l98 221h148l-125 -283q90 -87 90 -241v-496q0 -170 -96 -247.5t-283 -77.5q-97 0 -172 16l-98 -217h-146zM326 348q0 -41 2 -68.5t4 -34.5l2 -7h8l326 739q-50 16 -113 16q-114 0 -171.5 -46 t-57.5 -148v-451zM438 125q47 -16 117 -16q113 0 170 46t57 146v457q0 39 -2 66t-4 34l-2 8h-8z" />
<glyph unicode="&#xf9;" horiz-adv-x="1050" d="M143 254v848h154v-776q0 -101 28 -150t115 -49q63 0 142.5 37t152.5 94v844h152v-1102h-152v109h-10q-203 -129 -328 -129q-121 0 -187.5 74.5t-66.5 199.5zM285 1528h172l157 -295h-120z" />
<glyph unicode="&#xfa;" horiz-adv-x="1050" d="M143 254q0 -125 66.5 -199.5t187.5 -74.5q125 0 328 129h10v-109h152v1102h-152v-844q-73 -57 -152.5 -94t-142.5 -37q-87 0 -115 49t-28 150v776h-154v-848zM416 1233l157 295h172l-208 -295h-121z" />
<glyph unicode="&#xfb;" horiz-adv-x="1050" d="M143 254v848h154v-776q0 -101 28 -150t115 -49q63 0 142.5 37t152.5 94v844h152v-1102h-152v109h-10q-203 -129 -328 -129q-121 0 -187.5 74.5t-66.5 199.5zM264 1233l193 295h114l193 -295h-127l-123 203l-123 -203h-127z" />
<glyph unicode="&#xfc;" horiz-adv-x="1050" d="M143 254v848h154v-776q0 -101 28 -150t115 -49q63 0 142.5 37t152.5 94v844h152v-1102h-152v109h-10q-203 -129 -328 -129q-121 0 -187.5 74.5t-66.5 199.5zM276 1282v197h140v-197h-140zM608 1282v197h140v-197h-140z" />
<glyph unicode="&#xfd;" horiz-adv-x="921" d="M51 1102l365 -998v-143q0 -93 -48.5 -136.5t-146.5 -43.5h-61q14 -129 16 -129h82q143 0 224.5 73.5t82.5 223.5l2 155l303 998h-165l-216 -762h-8l-264 762h-166zM379 1233l158 295h172l-209 -295h-121z" />
<glyph unicode="&#xfe;" horiz-adv-x="1060" d="M164 -348v1874h151v-529h11q75 51 157.5 85t147.5 34q146 0 221.5 -87.5t75.5 -240.5v-491q0 -157 -84 -240.5t-236 -83.5q-95 0 -284 43h-9v-364h-151zM315 147q131 -43 240 -43q113 0 166 50t53 155v461q0 100 -40 149.5t-134 49.5q-62 0 -142.5 -38.5t-142.5 -94.5 v-689z" />
<glyph unicode="&#xff;" horiz-adv-x="921" d="M51 1102h166l264 -762h8l216 762h165l-303 -998l-2 -155q-1 -150 -82.5 -223.5t-224.5 -73.5h-82l-16 129h61q98 0 146.5 43.5t48.5 136.5v143zM233 1282v197h140v-197h-140zM565 1282v197h140v-197h-140z" />
<glyph unicode="&#x152;" horiz-adv-x="1728" d="M143 408v665q0 214 110.5 310t330.5 96h1054v-148h-587v-489h510v-148h-510v-547h616v-147h-1083q-220 0 -330.5 97t-110.5 311zM315 369q0 -118 74 -175t209 -57q134 0 208.5 56t74.5 174v747q0 229 -283 229t-283 -229v-745z" />
<glyph unicode="&#x153;" horiz-adv-x="1622" d="M133 305v496q0 173 97.5 247t283.5 74q214 0 305 -96q93 96 303 96q377 0 377 -334v-276h-608v-197q0 -107 58.5 -156.5t172.5 -49.5q117 0 171.5 49.5t54.5 163.5l151 -17q-6 -325 -377 -325q-209 0 -303 100q-90 -100 -305 -100q-188 0 -284.5 77.5t-96.5 247.5z M285 301q0 -101 57.5 -146.5t171.5 -45.5q113 0 170 46t57 146v498q0 102 -57 148t-170 46q-114 0 -171.5 -46t-57.5 -148v-498zM891 641h459v145q0 110 -57 158.5t-173 48.5q-117 0 -173 -48t-56 -159v-145z" />
<glyph unicode="&#x178;" d="M61 1479h183l297 -715h12l297 715h182l-399 -926v-553h-172v553zM301 1606v196h139v-196h-139zM633 1606v196h139v-196h-139z" />
<glyph unicode="&#x2c6;" horiz-adv-x="552" d="M27 1233l192 295h115l192 -295h-127l-123 203l-122 -203h-127z" />
<glyph unicode="&#x2dc;" horiz-adv-x="552" d="M-63 1331q10 84 60.5 130t121.5 46q37 0 155 -30q14 -4 46 -13.5t54 -14.5t38 -5q47 0 70.5 21t41.5 63l92 -19q-10 -84 -60.5 -130t-121.5 -46q-51 0 -155 31q-9 3 -36 11t-40 11.5t-31.5 7t-30.5 3.5q-47 0 -70.5 -21t-41.5 -63z" />
<glyph unicode="&#x2000;" horiz-adv-x="983" />
<glyph unicode="&#x2001;" horiz-adv-x="1966" />
<glyph unicode="&#x2002;" horiz-adv-x="983" />
<glyph unicode="&#x2003;" horiz-adv-x="1966" />
<glyph unicode="&#x2004;" horiz-adv-x="655" />
<glyph unicode="&#x2005;" horiz-adv-x="491" />
<glyph unicode="&#x2006;" horiz-adv-x="327" />
<glyph unicode="&#x2007;" horiz-adv-x="327" />
<glyph unicode="&#x2008;" horiz-adv-x="245" />
<glyph unicode="&#x2009;" horiz-adv-x="393" />
<glyph unicode="&#x200a;" horiz-adv-x="109" />
<glyph unicode="&#x2010;" horiz-adv-x="681" d="M92 492v131h502v-131h-502z" />
<glyph unicode="&#x2011;" horiz-adv-x="681" d="M92 492v131h502v-131h-502z" />
<glyph unicode="&#x2012;" horiz-adv-x="681" d="M92 492v131h502v-131h-502z" />
<glyph unicode="&#x2013;" horiz-adv-x="1024" d="M0 489v134h1024v-134h-1024z" />
<glyph unicode="&#x2014;" horiz-adv-x="2048" d="M0 489v134h2048v-134h-2048z" />
<glyph unicode="&#x2018;" horiz-adv-x="409" d="M125 1053v192q0 148 86 252l76 -10q-44 -54 -64 -110.5t-20 -131.5h82v-192h-160z" />
<glyph unicode="&#x2019;" horiz-adv-x="409" d="M123 1042q44 54 64 110.5t20 131.5h-82v193h160v-193q0 -148 -86 -252z" />
<glyph unicode="&#x201a;" horiz-adv-x="409" d="M123 -242q44 54 64 110.5t20 131.5h-82v193h160v-193q0 -148 -86 -252z" />
<glyph unicode="&#x201c;" horiz-adv-x="751" d="M123 1053v192q0 148 86 252l76 -10q-44 -54 -64 -110.5t-20 -131.5h82v-192h-160zM465 1053v192q0 148 86 252l76 -10q-44 -54 -64 -110.5t-20 -131.5h82v-192h-160z" />
<glyph unicode="&#x201d;" horiz-adv-x="751" d="M125 1042q44 54 64 110.5t20 131.5h-82v193h160v-193q0 -148 -86 -252zM467 1042q44 54 64 110.5t20 131.5h-82v193h160v-193q0 -148 -86 -252z" />
<glyph unicode="&#x201e;" horiz-adv-x="747" d="M123 -242q44 54 64 110.5t20 131.5h-82v193h160v-193q0 -148 -86 -252zM463 -242q44 54 64 110.5t20 131.5h-82v193h160v-193q0 -148 -86 -252z" />
<glyph unicode="&#x2022;" horiz-adv-x="923" d="M123 735q0 161 88 264t250 103q163 0 251.5 -103t88.5 -264t-88.5 -264.5t-251.5 -103.5q-162 0 -250 103.5t-88 264.5z" />
<glyph unicode="&#x2026;" horiz-adv-x="1048" d="M123 0v193h151v-193h-151zM449 0v193h151v-193h-151zM774 0v193h152v-193h-152z" />
<glyph unicode="&#x202f;" horiz-adv-x="393" />
<glyph unicode="&#x2039;" horiz-adv-x="507" d="M82 553l237 352l127 -12l-213 -344l207 -338l-121 -14z" />
<glyph unicode="&#x203a;" horiz-adv-x="507" d="M61 891l123 14l242 -352l-238 -356l-118 12l204 340z" />
<glyph unicode="&#x205f;" horiz-adv-x="491" />
<glyph unicode="&#x20ac;" d="M92 469v127l154 14v133l-154 -16v125l154 16v152q0 203 99.5 298t301.5 95h365v-129h-365q-250 0 -250 -237v-162l555 67v-125l-555 -67v-131l555 65v-125l-555 -65v-135q0 -118 63 -179t187 -61h365v-129h-365q-200 0 -300.5 94t-100.5 295v96z" />
<glyph unicode="&#x2122;" horiz-adv-x="1040" d="M76 1247v56h293v-56h-117v-463h-59v463h-117zM440 784v519h107l117 -404h8l114 404h109v-519h-57v465h-9l-133 -465h-57l-133 465h-8v-465h-58z" />
<glyph unicode="&#x25fc;" horiz-adv-x="1105" d="M0 0v1106h1106v-1106h-1106z" />
<glyph unicode="&#xfb03;" horiz-adv-x="1597" d="M20 973v129h197v123q0 151 83.5 225t227.5 74h101l16 -129h-82q-102 0 -148 -43.5t-46 -137.5v-112h381v123q0 151 83.5 225t227.5 74h100l17 -129h-82q-102 0 -148.5 -43.5t-46.5 -137.5v-112h533v-1104h-152v977l-381 -2v-973h-151v973h-381v-973h-152v973h-197z M1282 1317v160h152v-160h-152z" />
<glyph unicode="&#xfb04;" horiz-adv-x="1597" d="M20 973v129h197v123q0 151 83.5 225t227.5 74h101l16 -129h-82q-102 0 -148 -43.5t-46 -137.5v-112h381v123q0 151 83.5 225t227.5 74q36 0 91.5 -5t92.5 -11l37 -5l152 21v-1526h-152v1376q-110 21 -186 21q-102 0 -148.5 -43.5t-46.5 -137.5v-112h219v-127l-219 -2 v-973h-151v973h-381v-973h-152v973h-197z" />
</font>
</defs>
</svg>
